<svg width="453" height="181" viewBox="0 0 453 181" fill="none" xmlns="http://www.w3.org/2000/svg">
<path d="M137.127 115.332V105.125H143.347V66.7698H137.127V56.563H161.687V66.7698H155.467L155.308 105.125H161.687V115.332H137.127Z" fill="black"/>
<path d="M167.285 115.332V73.6274H179.565V80.1661L186.821 73.6274H201.414L210.265 82.5584V115.332H197.985V84.7113L194.955 81.6015H188.655L179.565 89.9742V115.332H167.285Z" fill="black"/>
<path d="M217.193 115.332V106.241H239.36L242.072 103.53V101.377L239.121 98.3469H223.333L215.04 90.4526V81.5217L223.253 73.7072H249.966V82.7178H229.552L227.08 85.3493V86.8643L229.951 89.8147H245.899L254.192 97.6293V107.437L245.979 115.332H217.193Z" fill="black"/>
<path d="M259.37 126.287V72.8485H271.65V78.3506L277.551 72.7687H292.542L301.393 81.6997V105.622L292.542 114.473H277.63L271.65 108.971V126.287H259.37ZM279.305 106.499H286.641L289.352 103.708V83.6134L286.641 80.7428L279.305 80.8225L271.65 87.9992V99.3223L279.305 106.499Z" fill="black"/>
<path d="M307.563 69.0822V58.5565H319.843V69.0822H307.563ZM307.563 115.332V73.6274H319.843V115.332H307.563Z" fill="black"/>
<path d="M327.015 115.332V73.6274H339.295V80.5648L346.551 73.7072H355.403V85.1898H344.717L339.295 90.3729V115.332H327.015Z" fill="black"/>
<path d="M367.964 115.332L359.113 106.48V82.5584L367.964 73.7072H389.175L398.106 82.5584V98.1875H371.393V102.972L374.582 106.161L397.388 106.082V115.332H367.964ZM371.313 90.1337H386.464V84.7113L383.274 81.5217L374.582 81.6015L371.313 84.7113V90.1337Z" fill="black"/>
<path d="M101.259 62.235H94.6318V54.6724H114.169V74.2093H106.606V67.5831L59.853 114.336L54.5054 108.989L101.259 62.235Z" fill="black"/>
<path d="M59.4922 58.931L54.1445 64.2786L73.2417 83.3758L78.5893 78.0282L59.4922 58.931Z" fill="black"/>
<path d="M85.4649 95.599L90.8125 90.2513L106.606 106.045V99.4182H114.169V118.955H94.6318V111.392H101.258L85.4649 95.599Z" fill="black"/>
</svg>
