<svg width="302" height="90" viewBox="0 0 302 90" fill="none" xmlns="http://www.w3.org/2000/svg">
<path d="M121.624 65.613C133.27 65.613 138.787 56.827 138.787 46.6108C138.787 46.2022 138.787 45.7424 138.736 45.3338H120.092V49.4203H134.088C133.322 56.163 129.542 61.4243 121.624 61.4243C112.838 61.4243 108.803 54.6816 108.803 46.6108C108.803 38.54 112.838 31.7973 121.624 31.7973C128.06 31.7973 131.942 35.424 133.526 40.5322H138.174C136.284 33.1254 130.87 27.6086 121.624 27.6086C109.978 27.6086 104.103 36.3946 104.103 46.6108C104.103 56.827 109.978 65.613 121.624 65.613ZM144.4 65H148.691V50.7995C148.691 44.1589 152.369 42.2689 156.864 42.2689H158.958V38.1313H156.966C153.748 38.1313 150.632 39.1019 148.487 42.8819V38.4378H144.4V65ZM180.617 65H184.601V45.487C184.601 40.7876 181.434 37.8249 174.589 37.8249C168.97 37.8249 163.658 40.1746 163.453 46.6108H167.744C167.949 42.5754 171.422 41.6049 174.589 41.6049C178.267 41.6049 180.412 42.7286 180.412 45.8957V47.9389L172.086 49.5224C166.161 50.6462 162.534 53.0981 162.534 57.7976C162.534 62.8035 166.161 65.613 172.137 65.613C175.253 65.613 178.318 64.6424 180.617 61.6797V65ZM166.978 57.6954C166.978 54.6816 169.277 53.8643 172.699 53.1492L180.412 51.5657V54.4773C180.412 59.6365 176.224 61.833 172.342 61.833C168.562 61.833 166.978 60.1473 166.978 57.6954ZM208.544 47.9389V65H212.783V47.5303C212.783 42.8308 210.076 37.8249 203.333 37.8249C199.4 37.8249 196.591 39.7659 194.803 42.2689V38.4378H190.716V65H195.007V50.1354C195.007 42.5754 200.677 41.707 202.516 41.707C206.603 41.707 208.544 44.2611 208.544 47.9389ZM236.161 65H240.146V45.487C240.146 40.7876 236.979 37.8249 230.134 37.8249C224.515 37.8249 219.202 40.1746 218.998 46.6108H223.289C223.493 42.5754 226.967 41.6049 230.134 41.6049C233.812 41.6049 235.957 42.7286 235.957 45.8957V47.9389L227.631 49.5224C221.705 50.6462 218.079 53.0981 218.079 57.7976C218.079 62.8035 221.705 65.613 227.682 65.613C230.798 65.613 233.863 64.6424 236.161 61.6797V65ZM222.523 57.6954C222.523 54.6816 224.821 53.8643 228.244 53.1492L235.957 51.5657V54.4773C235.957 59.6365 231.768 61.833 227.886 61.833C224.106 61.833 222.523 60.1473 222.523 57.6954ZM270.474 65V28.2216H266.183V42.2178C264.293 39.4595 261.33 37.8249 257.397 37.8249C249.428 37.8249 245.035 43.7503 245.035 51.7189C245.035 59.6876 249.428 65.613 257.397 65.613C261.483 65.613 264.497 63.8251 266.387 60.9135V65H270.474ZM249.53 51.7189C249.53 45.8957 252.289 41.707 257.908 41.707C263.526 41.707 266.285 45.8957 266.285 51.7189C266.285 57.5422 263.526 61.7308 257.908 61.7308C252.289 61.7308 249.53 57.5422 249.53 51.7189ZM293.851 65H297.835V45.487C297.835 40.7876 294.668 37.8249 287.823 37.8249C282.205 37.8249 276.892 40.1746 276.688 46.6108H280.979C281.183 42.5754 284.656 41.6049 287.823 41.6049C291.501 41.6049 293.647 42.7286 293.647 45.8957V47.9389L285.32 49.5224C279.395 50.6462 275.768 53.0981 275.768 57.7976C275.768 62.8035 279.395 65.613 285.372 65.613C288.487 65.613 291.552 64.6424 293.851 61.6797V65ZM280.212 57.6954C280.212 54.6816 282.511 53.8643 285.933 53.1492L293.647 51.5657V54.4773C293.647 59.6365 289.458 61.833 285.576 61.833C281.796 61.833 280.212 60.1473 280.212 57.6954Z" fill="black"/>
<circle cx="38.9188" cy="46.2163" r="37.7027" stroke="black" stroke-width="2.43243"/>
<path d="M57.162 36.4866C57.162 51.9356 44.6381 64.4595 29.1891 64.4595C13.74 64.4595 1.21609 51.9356 1.21609 36.4866C1.21609 21.0375 13.74 8.51358 29.1891 8.51358C44.6381 8.51358 57.162 21.0375 57.162 36.4866Z" stroke="black" stroke-width="2.43243"/>
<circle cx="19.4593" cy="26.7568" r="18.2432" stroke="black" stroke-width="2.43243"/>
</svg>
