<svg width="259" height="98" viewBox="0 0 259 98" fill="none" xmlns="http://www.w3.org/2000/svg">
<g filter="url(#filter0_di_1112_940)">
<path d="M26.6916 62.4028C13.5177 63.0784 13.3207 48.0466 14.8689 40.4463C-5.39863 61.9805 7.69078 91.1151 34.7142 92.8041C56.3329 94.1553 62.0191 77.3219 62.1598 68.7364C62.1598 52.269 46.5372 28.5036 44.4257 21.8677C41.47 12.5784 45.6925 6.3855 47.8037 4.97803C24.8338 12.0717 29.5066 33.2682 34.7142 42.9797C37.5291 49.1726 39.8656 61.7272 26.6916 62.4028Z" fill="black"/>
<path d="M26.6916 62.4028C13.5177 63.0784 13.3207 48.0466 14.8689 40.4463C-5.39863 61.9805 7.69078 91.1151 34.7142 92.8041C56.3329 94.1553 62.0191 77.3219 62.1598 68.7364C62.1598 52.269 46.5372 28.5036 44.4257 21.8677C41.47 12.5784 45.6925 6.3855 47.8037 4.97803C24.8338 12.0717 29.5066 33.2682 34.7142 42.9797C37.5291 49.1726 39.8656 61.7272 26.6916 62.4028Z" stroke="black" stroke-width="0.844482"/>
</g>
<path d="M91.6988 76.9561L98.4883 26.928H105.028L117.749 50.87L130.399 26.928H136.974L143.728 76.9561H135.581L130.649 37.5054L132.722 37.8984L117.821 65.664L102.705 37.9342L104.778 37.5411L99.8462 76.9561H91.6988ZM158.874 77.6707C156.825 77.6707 155.003 77.2419 153.407 76.3843C151.811 75.5029 150.548 74.2879 149.619 72.7394C148.714 71.1909 148.261 69.3685 148.261 67.2721C148.261 65.2709 148.714 63.5676 149.619 62.162C150.524 60.7327 151.727 59.5415 153.228 58.5886C154.729 57.6357 156.373 56.8853 158.16 56.3374C159.97 55.7656 161.804 55.3487 163.663 55.0867C165.521 54.8246 167.248 54.6817 168.844 54.6578C168.82 51.8706 168.225 49.9886 167.057 49.0118C165.89 48.0113 164.115 47.511 161.733 47.511C160.304 47.511 158.839 47.7254 157.338 48.1542C155.837 48.5592 154.145 49.3334 152.263 50.4769L151.406 44.4021C153.121 43.3539 155.039 42.5201 157.159 41.9007C159.279 41.2813 161.471 40.9716 163.734 40.9716C166.569 40.9716 168.916 41.4719 170.774 42.4724C172.632 43.473 174.026 45.1287 174.955 47.4395C175.884 49.7503 176.348 52.8473 176.348 56.7304V64.9493C176.348 66.6646 176.42 68.0106 176.563 68.9873C176.73 69.9402 177.075 70.6192 177.599 71.0242C178.123 71.4291 178.921 71.6316 179.993 71.6316H180.851L179.922 77.6707H178.278C176.515 77.6707 175.086 77.4802 173.99 77.099C172.918 76.7178 172.048 76.1818 171.381 75.4909C170.714 74.7763 170.154 73.9305 169.702 72.9538C168.439 74.3832 166.867 75.5267 164.985 76.3843C163.127 77.2419 161.09 77.6707 158.874 77.6707ZM161.161 71.8103C162.495 71.8103 163.865 71.4768 165.271 70.8098C166.7 70.1427 167.903 69.2136 168.88 68.0225V59.7321C166.212 59.8512 163.913 60.1728 161.983 60.6969C160.077 61.1972 158.6 61.9596 157.552 62.9839C156.528 64.0083 156.016 65.3186 156.016 66.9147C156.016 68.63 156.468 69.8807 157.373 70.6668C158.279 71.4291 159.541 71.8103 161.161 71.8103ZM194.809 77.6707C192.617 77.6707 190.854 77.2538 189.52 76.42C188.186 75.5862 187.21 74.5023 186.59 73.1682C185.995 71.8103 185.697 70.369 185.697 68.8444V23.3546H193.165V65.1637C193.165 67.1172 193.284 68.5585 193.523 69.4876C193.785 70.3929 194.273 70.9765 194.988 71.2386C195.726 71.5006 196.81 71.6316 198.24 71.6316L197.382 77.6707H194.809ZM214.941 77.6707C212.725 77.6707 210.927 77.2419 209.545 76.3843C208.187 75.5267 207.186 74.4308 206.543 73.0967C205.924 71.7627 205.614 70.3571 205.614 68.8801V47.6182H200.004L200.683 41.6506H205.614V33.3245L213.083 32.5383V41.6506H221.73V47.6182H213.083V65.0923C213.083 67.141 213.202 68.63 213.44 69.5591C213.678 70.4643 214.262 71.0361 215.191 71.2743C216.12 71.5125 217.597 71.6316 219.622 71.6316H221.623L220.98 77.6707H214.941ZM235.298 77.6707C233.249 77.6707 231.427 77.2419 229.831 76.3843C228.235 75.5029 226.972 74.2879 226.043 72.7394C225.138 71.1909 224.685 69.3685 224.685 67.2721C224.685 65.2709 225.138 63.5676 226.043 62.162C226.948 60.7327 228.151 59.5415 229.652 58.5886C231.153 57.6357 232.797 56.8853 234.584 56.3374C236.394 55.7656 238.228 55.3487 240.087 55.0867C241.945 54.8246 243.672 54.6817 245.268 54.6578C245.244 51.8706 244.649 49.9886 243.481 49.0118C242.314 48.0113 240.539 47.511 238.157 47.511C236.728 47.511 235.263 47.7254 233.762 48.1542C232.261 48.5592 230.569 49.3334 228.687 50.4769L227.83 44.4021C229.545 43.3539 231.463 42.5201 233.583 41.9007C235.703 41.2813 237.895 40.9716 240.158 40.9716C242.993 40.9716 245.34 41.4719 247.198 42.4724C249.056 43.473 250.45 45.1287 251.379 47.4395C252.308 49.7503 252.772 52.8473 252.772 56.7304V64.9493C252.772 66.6646 252.844 68.0106 252.987 68.9873C253.153 69.9402 253.499 70.6192 254.023 71.0242C254.547 71.4291 255.345 71.6316 256.417 71.6316H257.275L256.346 77.6707H254.702C252.939 77.6707 251.51 77.4802 250.414 77.099C249.342 76.7178 248.472 76.1818 247.805 75.4909C247.138 74.7763 246.578 73.9305 246.126 72.9538C244.863 74.3832 243.291 75.5267 241.409 76.3843C239.551 77.2419 237.514 77.6707 235.298 77.6707ZM237.585 71.8103C238.919 71.8103 240.289 71.4768 241.695 70.8098C243.124 70.1427 244.327 69.2136 245.304 68.0225V59.7321C242.636 59.8512 240.337 60.1728 238.407 60.6969C236.501 61.1972 235.024 61.9596 233.976 62.9839C232.952 64.0083 232.439 65.3186 232.439 66.9147C232.439 68.63 232.892 69.8807 233.797 70.6668C234.703 71.4291 235.965 71.8103 237.585 71.8103Z" fill="#020625"/>
<defs>
<filter id="filter0_di_1112_940" x="0.509984" y="0.507054" width="66.1397" height="96.8638" filterUnits="userSpaceOnUse" color-interpolation-filters="sRGB">
<feFlood flood-opacity="0" result="BackgroundImageFix"/>
<feColorMatrix in="SourceAlpha" type="matrix" values="0 0 0 0 0 0 0 0 0 0 0 0 0 0 0 0 0 0 127 0" result="hardAlpha"/>
<feOffset/>
<feGaussianBlur stdDeviation="2.03383"/>
<feComposite in2="hardAlpha" operator="out"/>
<feColorMatrix type="matrix" values="0 0 0 0 0.941176 0 0 0 0 0.466667 0 0 0 0 0.219608 0 0 0 0.35 0"/>
<feBlend mode="normal" in2="BackgroundImageFix" result="effect1_dropShadow_1112_940"/>
<feBlend mode="normal" in="SourceGraphic" in2="effect1_dropShadow_1112_940" result="shape"/>
<feColorMatrix in="SourceAlpha" type="matrix" values="0 0 0 0 0 0 0 0 0 0 0 0 0 0 0 0 0 0 127 0" result="hardAlpha"/>
<feOffset dy="2.71177"/>
<feGaussianBlur stdDeviation="1.35588"/>
<feComposite in2="hardAlpha" operator="arithmetic" k2="-1" k3="1"/>
<feColorMatrix type="matrix" values="0 0 0 0 0 0 0 0 0 0 0 0 0 0 0 0 0 0 0.14 0"/>
<feBlend mode="normal" in2="shape" result="effect2_innerShadow_1112_940"/>
</filter>
</defs>
</svg>
